<?xml version="1.0" standalone="no"?>
<!DOCTYPE svg PUBLIC "-//W3C//DTD SVG 20010904//EN"
 "http://www.w3.org/TR/2001/REC-SVG-20010904/DTD/svg10.dtd">
<svg version="1.0" xmlns="http://www.w3.org/2000/svg"
 width="400.000000pt" height="400.000000pt" viewBox="0 0 400.000000 400.000000"
 preserveAspectRatio="xMidYMid meet">
<metadata>
Created by potrace 1.14, written by Peter Selinger 2001-2017
</metadata>
<g transform="translate(0.000000,400.000000) scale(0.100000,-0.100000)"
fill="#000000" stroke="none">
<path d="M1927 3644 c-1 -1 -46 -5 -99 -8 -53 -4 -107 -9 -120 -12 -13 -2 -41
-7 -63 -10 -22 -2 -56 -9 -75 -14 -19 -5 -44 -11 -55 -13 -145 -26 -362 -120
-520 -225 -88 -58 -276 -231 -335 -307 -88 -114 -184 -296 -224 -425 -40 -125
-40 -184 -2 -305 8 -23 4 -25 -201 -97 -120 -42 -123 -44 -129 -76 -15 -79 19
-187 66 -212 13 -7 40 -3 96 15 44 14 82 25 87 25 4 0 0 -17 -8 -37 -12 -28
-13 -38 -3 -44 7 -4 15 -6 19 -3 9 5 69 -16 69 -26 0 -4 -58 -42 -129 -85 -71
-43 -131 -86 -134 -95 -6 -25 7 -42 34 -45 50 -6 116 -16 172 -27 52 -10 56
-12 43 -27 -20 -22 -34 -89 -30 -147 3 -56 24 -110 63 -169 20 -29 28 -54 29
-94 10 -287 276 -554 701 -705 105 -37 272 -80 355 -91 27 -3 52 -8 55 -9 20
-12 189 -20 401 -20 218 -1 292 3 380 19 14 3 42 7 64 10 21 2 46 7 55 9 9 3
32 7 52 10 59 9 268 75 359 113 267 114 467 282 554 466 37 79 48 123 51 209
2 39 9 66 24 87 32 45 77 149 89 205 14 68 9 170 -12 234 -10 29 -16 55 -14
57 2 2 46 16 98 31 153 43 158 50 79 113 -50 40 -57 51 -19 31 17 -9 18 -5 14
51 l-4 60 34 -26 35 -27 7 26 c7 28 32 47 87 65 20 7 37 16 37 21 0 12 -29 40
-43 41 -78 6 -129 26 -145 57 -11 20 -6 60 8 77 8 9 -8 18 -59 35 -99 31 -127
51 -126 86 4 79 -106 328 -224 509 -25 39 -48 72 -51 75 -3 3 -29 35 -58 72
-121 154 -348 334 -521 415 -175 81 -357 131 -546 149 -66 6 -263 12 -268 8z"/>
</g>
</svg>
